<?xml version="1.0" encoding="iso-8859-1"?>
<!-- Uploaded to: SVG Repo, www.svgrepo.com, Generator: SVG Repo Mixer Tools -->
<!DOCTYPE svg PUBLIC "-//W3C//DTD SVG 1.1//EN" "http://www.w3.org/Graphics/SVG/1.1/DTD/svg11.dtd">
<svg fill="#000000" version="1.1" id="Capa_1" xmlns="http://www.w3.org/2000/svg" xmlns:xlink="http://www.w3.org/1999/xlink" 
	 width="800px" height="800px" viewBox="0 0 465.231 465.231"
	 xml:space="preserve">
<g>
	<g>
		<path d="M332.116,55.063H133.12c-1.635,0-2.96,1.328-2.96,2.963v329.828c0,1.635,1.326,2.96,2.96,2.96h198.996
			c1.635,0,2.96-1.325,2.96-2.96V58.026C335.076,56.391,333.751,55.063,332.116,55.063z M329.15,384.888H136.083V60.989H329.15
			V384.888z"/>
		<path d="M167.511,402.615h-5.657l1.445-2.407c0.276-0.473,0.127-1.082-0.34-1.361c-0.49-0.273-1.082-0.132-1.358,0.341
			l-2.425,4.052c-0.172,0.3-0.183,0.676-0.023,0.98l1.912,3.555c0.173,0.335,0.521,0.513,0.868,0.513
			c0.165,0,0.315-0.036,0.472-0.117c0.482-0.259,0.658-0.853,0.404-1.341l-1.208-2.244h5.911c0.543,0,0.988-0.441,0.988-0.99
			C168.499,403.052,168.062,402.615,167.511,402.615z"/>
		<polygon points="230.757,403.904 235.452,403.904 235.452,398.842 230.757,399.665 		"/>
		<polygon points="230.757,408.652 235.452,409.774 235.452,404.717 230.757,404.717 		"/>
		<polygon points="236.421,403.904 243.257,403.904 243.257,397.877 236.421,398.842 		"/>
		<polygon points="236.421,409.404 243.257,411.187 243.257,404.717 236.421,404.717 		"/>
		<path d="M310.515,399.197c-2.585,0-4.692,2.118-4.692,4.707c0,0.863,0.295,1.63,0.706,2.321l-2.854,2.244
			c-0.437,0.34-0.497,0.965-0.167,1.392c0.198,0.243,0.492,0.381,0.782,0.381c0.213,0,0.437-0.071,0.609-0.208l2.98-2.347
			c0.767,0.538,1.641,0.925,2.646,0.925c2.59,0,4.707-2.118,4.707-4.708C315.231,401.315,313.104,399.197,310.515,399.197z
			 M310.515,406.637c-1.493,0-2.717-1.224-2.717-2.732c0-1.508,1.219-2.731,2.717-2.731c1.503,0,2.731,1.224,2.731,2.731
			C313.246,405.413,312.018,406.637,310.515,406.637z"/>
		<path d="M291.965,40.093c3.352,0,6.083-2.716,6.083-6.065c0-3.367-2.731-6.076-6.083-6.076c-3.377,0-6.089,2.717-6.089,6.076
			C285.876,37.376,288.588,40.093,291.965,40.093z"/>
		<path d="M328.724,0H136.51c-20.69,0-37.523,16.836-37.523,37.526v390.179c0,20.692,16.833,37.526,37.523,37.526h192.209
			c20.688,0,37.526-16.834,37.526-37.526V37.526C366.25,16.836,349.417,0,328.724,0z M328.724,453.374H136.51
			c-14.157,0-25.674-11.517-25.674-25.674V37.526c0-14.158,11.517-25.675,25.674-25.675h60.783l2.268,3.585
			c0.355,0.576,0.988,0.924,1.666,0.924h49.378c0.675,0,1.31-0.348,1.671-0.924l2.26-3.585h74.188
			c14.157,0,25.68,11.517,25.68,25.675v390.179C354.403,441.857,342.881,453.374,328.724,453.374z M201.962,11.852h47.895
			l-0.345,0.554h-47.195L201.962,11.852z"/>
		<path d="M262.746,38.48h9.354c2.447,0,4.453-1.998,4.453-4.453c0-2.465-2.006-4.463-4.453-4.463h-9.354
			c-2.469,0-4.459,1.998-4.459,4.463C258.287,36.482,260.277,38.48,262.746,38.48z"/>
	</g>
</g>
</svg>